<?xml version="1.0" encoding="utf-8"?>
<!-- Generator: Adobe Illustrator 24.1.2, SVG Export Plug-In . SVG Version: 6.00 Build 0)  -->
<svg version="1.1" id="Layer_1" xmlns="http://www.w3.org/2000/svg" xmlns:xlink="http://www.w3.org/1999/xlink" x="0px" y="0px"
	 viewBox="0 0 191 172" style="enable-background:new 0 0 191 172;" xml:space="preserve">
<style type="text/css">
	.st0{fill:#FFFFFF;}
</style>
<g>
	<path class="st0" d="M146.24,76.47c-5.42,0-10.04,3.38-11.9,8.15l-13.64-0.9l-0.36,5.41l13.15,0.87
		c0.39,6.7,5.93,12.02,12.74,12.02c7.05,0,12.77-5.72,12.77-12.77S153.3,76.47,146.24,76.47z"/>
	<path class="st0" d="M105.98,122.34c-0.16,0-0.31,0.02-0.47,0.02l-3.11-13.29l-5.28,1.23l3.13,13.4c-4.18,2.1-7.05,6.41-7.05,11.41
		c0,7.05,5.72,12.77,12.77,12.77s12.77-5.72,12.77-12.77S113.04,122.34,105.98,122.34z"/>
	<circle class="st0" cx="94.98" cy="84.5" r="20.69"/>
	<path class="st0" d="M69.46,57c1.11-1.89,1.75-4.09,1.75-6.43c0-7.05-5.72-12.77-12.77-12.77s-12.77,5.72-12.77,12.77
		s5.72,12.77,12.77,12.77c2.74,0,5.28-0.87,7.36-2.34l7.24,6.49l3.62-4.04L69.46,57z"/>
	<path class="st0" d="M110.08,62.54l9.57-16.58c1.3,0.45,2.69,0.7,4.14,0.7c7.05,0,12.77-5.72,12.77-12.77s-5.72-12.77-12.77-12.77
		c-7.05,0-12.77,5.72-12.77,12.77c0,3.65,1.54,6.94,4,9.26l-9.63,16.68L110.08,62.54z"/>
	<path class="st0" d="M69,89.81L51.7,95.44c-2.24-3.71-6.29-6.2-10.94-6.2c-7.05,0-12.77,5.72-12.77,12.77s5.72,12.77,12.77,12.77
		s12.77-5.72,12.77-12.77c0-0.49-0.03-0.97-0.09-1.44l17.24-5.61L69,89.81z"/>
</g>
</svg>
